<svg width="102" height="126" viewBox="0 0 102 126" fill="none" xmlns="http://www.w3.org/2000/svg">
<path d="M0 0H101.64V75.18C101.64 103.247 78.8871 126 50.82 126C22.7529 126 0 103.247 0 75.18V0Z" fill="#D25C5C"/>
<path d="M39.3491 70.5255H34.6787L33.9059 72.7599H31.4363L35.6531 61.0167H38.3915L42.6083 72.7599H40.1219L39.3491 70.5255ZM38.7107 68.6439L37.0139 63.7383L35.3171 68.6439H38.7107ZM43.5797 68.0727C43.5797 67.1319 43.7645 66.2975 44.1341 65.5695C44.5149 64.8415 45.0301 64.2815 45.6797 63.8895C46.3293 63.4975 47.0517 63.3015 47.8469 63.3015C48.4517 63.3015 49.0285 63.4359 49.5773 63.7047C50.1261 63.9623 50.5629 64.3095 50.8877 64.7463V60.3279H53.2733V72.7599H50.8877V71.3823C50.5965 71.8415 50.1877 72.2111 49.6613 72.4911C49.1349 72.7711 48.5245 72.9111 47.8301 72.9111C47.0461 72.9111 46.3293 72.7095 45.6797 72.3063C45.0301 71.9031 44.5149 71.3375 44.1341 70.6095C43.7645 69.8703 43.5797 69.0247 43.5797 68.0727ZM50.9045 68.1063C50.9045 67.5351 50.7925 67.0479 50.5685 66.6447C50.3445 66.2303 50.0421 65.9167 49.6613 65.7039C49.2805 65.4799 48.8717 65.3679 48.4349 65.3679C47.9981 65.3679 47.5949 65.4743 47.2253 65.6871C46.8557 65.8999 46.5533 66.2135 46.3181 66.6279C46.0941 67.0311 45.9821 67.5127 45.9821 68.0727C45.9821 68.6327 46.0941 69.1255 46.3181 69.5511C46.5533 69.9655 46.8557 70.2847 47.2253 70.5087C47.6061 70.7327 48.0093 70.8447 48.4349 70.8447C48.8717 70.8447 49.2805 70.7383 49.6613 70.5255C50.0421 70.3015 50.3445 69.9879 50.5685 69.5847C50.7925 69.1703 50.9045 68.6775 50.9045 68.1063ZM54.9657 68.0727C54.9657 67.1319 55.1505 66.2975 55.5201 65.5695C55.9009 64.8415 56.4161 64.2815 57.0657 63.8895C57.7153 63.4975 58.4377 63.3015 59.2329 63.3015C59.8377 63.3015 60.4145 63.4359 60.9633 63.7047C61.5121 63.9623 61.9489 64.3095 62.2737 64.7463V60.3279H64.6593V72.7599H62.2737V71.3823C61.9825 71.8415 61.5737 72.2111 61.0473 72.4911C60.5209 72.7711 59.9105 72.9111 59.2161 72.9111C58.4321 72.9111 57.7153 72.7095 57.0657 72.3063C56.4161 71.9031 55.9009 71.3375 55.5201 70.6095C55.1505 69.8703 54.9657 69.0247 54.9657 68.0727ZM62.2905 68.1063C62.2905 67.5351 62.1785 67.0479 61.9545 66.6447C61.7305 66.2303 61.4281 65.9167 61.0473 65.7039C60.6665 65.4799 60.2577 65.3679 59.8209 65.3679C59.3841 65.3679 58.9809 65.4743 58.6113 65.6871C58.2417 65.8999 57.9393 66.2135 57.7041 66.6279C57.4801 67.0311 57.3681 67.5127 57.3681 68.0727C57.3681 68.6327 57.4801 69.1255 57.7041 69.5511C57.9393 69.9655 58.2417 70.2847 58.6113 70.5087C58.9921 70.7327 59.3953 70.8447 59.8209 70.8447C60.2577 70.8447 60.6665 70.7383 61.0473 70.5255C61.4281 70.3015 61.7305 69.9879 61.9545 69.5847C62.1785 69.1703 62.2905 68.6775 62.2905 68.1063ZM26.2994 95.8951H30.1634V97.7599H23.9474V86.0335H26.2994V95.8951ZM32.8511 87.3439C32.4367 87.3439 32.0895 87.2151 31.8095 86.9575C31.5407 86.6887 31.4063 86.3583 31.4063 85.9663C31.4063 85.5743 31.5407 85.2495 31.8095 84.9919C32.0895 84.7231 32.4367 84.5887 32.8511 84.5887C33.2655 84.5887 33.6071 84.7231 33.8759 84.9919C34.1559 85.2495 34.2959 85.5743 34.2959 85.9663C34.2959 86.3583 34.1559 86.6887 33.8759 86.9575C33.6071 87.2151 33.2655 87.3439 32.8511 87.3439ZM34.0103 88.4527V97.7599H31.6583V88.4527H34.0103ZM39.8957 97.9111C39.1341 97.9111 38.4509 97.7767 37.8461 97.5079C37.2413 97.2279 36.7597 96.8527 36.4013 96.3823C36.0541 95.9119 35.8637 95.3911 35.8301 94.8199H38.1989C38.2437 95.1783 38.4173 95.4751 38.7197 95.7103C39.0333 95.9455 39.4197 96.0631 39.8789 96.0631C40.3269 96.0631 40.6741 95.9735 40.9205 95.7943C41.1781 95.6151 41.3069 95.3855 41.3069 95.1055C41.3069 94.8031 41.1501 94.5791 40.8365 94.4335C40.5341 94.2767 40.0469 94.1087 39.3749 93.9295C38.6805 93.7615 38.1093 93.5879 37.6613 93.4087C37.2245 93.2295 36.8437 92.9551 36.5189 92.5855C36.2053 92.2159 36.0485 91.7175 36.0485 91.0903C36.0485 90.5751 36.1941 90.1047 36.4853 89.6791C36.7877 89.2535 37.2133 88.9175 37.7621 88.6711C38.3221 88.4247 38.9773 88.3015 39.7277 88.3015C40.8365 88.3015 41.7213 88.5815 42.3821 89.1415C43.0429 89.6903 43.4069 90.4351 43.4741 91.3759H41.2229C41.1893 91.0063 41.0325 90.7151 40.7525 90.5023C40.4837 90.2783 40.1197 90.1663 39.6605 90.1663C39.2349 90.1663 38.9045 90.2447 38.6693 90.4015C38.4453 90.5583 38.3333 90.7767 38.3333 91.0567C38.3333 91.3703 38.4901 91.6111 38.8037 91.7791C39.1173 91.9359 39.6045 92.0983 40.2653 92.2663C40.9373 92.4343 41.4917 92.6079 41.9285 92.7871C42.3653 92.9663 42.7405 93.2463 43.0541 93.6271C43.3789 93.9967 43.5469 94.4895 43.5581 95.1055C43.5581 95.6431 43.4069 96.1247 43.1045 96.5503C42.8133 96.9759 42.3877 97.3119 41.8277 97.5583C41.2789 97.7935 40.6349 97.9111 39.8957 97.9111ZM48.2272 90.3847V94.8871C48.2272 95.2007 48.3 95.4303 48.4456 95.5759C48.6024 95.7103 48.86 95.7775 49.2184 95.7775H50.3104V97.7599H48.832C46.8496 97.7599 45.8584 96.7967 45.8584 94.8703V90.3847H44.7496V88.4527H45.8584V86.1511H48.2272V88.4527H50.3104V90.3847H48.2272ZM53.1949 87.3439C52.7805 87.3439 52.4333 87.2151 52.1533 86.9575C51.8845 86.6887 51.7501 86.3583 51.7501 85.9663C51.7501 85.5743 51.8845 85.2495 52.1533 84.9919C52.4333 84.7231 52.7805 84.5887 53.1949 84.5887C53.6093 84.5887 53.9509 84.7231 54.2197 84.9919C54.4997 85.2495 54.6397 85.5743 54.6397 85.9663C54.6397 86.3583 54.4997 86.6887 54.2197 86.9575C53.9509 87.2151 53.6093 87.3439 53.1949 87.3439ZM54.3541 88.4527V97.7599H52.0021V88.4527H54.3541ZM61.8355 88.3183C62.9443 88.3183 63.8403 88.6711 64.5235 89.3767C65.2067 90.0711 65.5483 91.0455 65.5483 92.2999V97.7599H63.1963V92.6191C63.1963 91.8799 63.0115 91.3143 62.6419 90.9223C62.2723 90.5191 61.7683 90.3175 61.1299 90.3175C60.4803 90.3175 59.9651 90.5191 59.5843 90.9223C59.2147 91.3143 59.0299 91.8799 59.0299 92.6191V97.7599H56.6779V88.4527H59.0299V89.6119C59.3435 89.2087 59.7411 88.8951 60.2227 88.6711C60.7155 88.4359 61.2531 88.3183 61.8355 88.3183ZM71.4305 88.3015C72.1249 88.3015 72.7353 88.4415 73.2617 88.7215C73.7881 88.9903 74.2025 89.3431 74.5049 89.7799V88.4527H76.8737V97.8271C76.8737 98.6895 76.7001 99.4567 76.3529 100.129C76.0057 100.812 75.4849 101.349 74.7905 101.741C74.0961 102.145 73.2561 102.346 72.2705 102.346C70.9489 102.346 69.8625 102.038 69.0113 101.422C68.1713 100.806 67.6953 99.9663 67.5833 98.9023H69.9185C70.0417 99.3279 70.3049 99.6639 70.7081 99.9103C71.1225 100.168 71.6209 100.297 72.2033 100.297C72.8865 100.297 73.4409 100.089 73.8665 99.6751C74.2921 99.2719 74.5049 98.6559 74.5049 97.8271V96.3823C74.2025 96.8191 73.7825 97.1831 73.2449 97.4743C72.7185 97.7655 72.1137 97.9111 71.4305 97.9111C70.6465 97.9111 69.9297 97.7095 69.2801 97.3063C68.6305 96.9031 68.1153 96.3375 67.7345 95.6095C67.3649 94.8703 67.1801 94.0247 67.1801 93.0727C67.1801 92.1319 67.3649 91.2975 67.7345 90.5695C68.1153 89.8415 68.6249 89.2815 69.2633 88.8895C69.9129 88.4975 70.6353 88.3015 71.4305 88.3015ZM74.5049 93.1063C74.5049 92.5351 74.3929 92.0479 74.1689 91.6447C73.9449 91.2303 73.6425 90.9167 73.2617 90.7039C72.8809 90.4799 72.4721 90.3679 72.0353 90.3679C71.5985 90.3679 71.1953 90.4743 70.8257 90.6871C70.4561 90.8999 70.1537 91.2135 69.9185 91.6279C69.6945 92.0311 69.5825 92.5127 69.5825 93.0727C69.5825 93.6327 69.6945 94.1255 69.9185 94.5511C70.1537 94.9655 70.4561 95.2847 70.8257 95.5087C71.2065 95.7327 71.6097 95.8447 72.0353 95.8447C72.4721 95.8447 72.8809 95.7383 73.2617 95.5255C73.6425 95.3015 73.9449 94.9879 74.1689 94.5847C74.3929 94.1703 74.5049 93.6775 74.5049 93.1063Z" fill="white"/>
<ellipse cx="36.4349" cy="23.9151" rx="1.995" ry="2.07529" fill="white"/>
<rect x="39.76" y="21.8398" width="26.6" height="4.15059" rx="2.07529" fill="white"/>
<ellipse cx="36.4349" cy="33.5998" rx="1.995" ry="2.07529" fill="white"/>
<rect x="39.76" y="31.5245" width="21.28" height="4.15059" rx="2.07529" fill="white"/>
<ellipse cx="36.4349" cy="43.2845" rx="1.995" ry="2.07529" fill="white"/>
<rect x="39.76" y="41.2092" width="15.96" height="4.15059" rx="2.07529" fill="white"/>
</svg>
