<svg width="61" height="60" viewBox="0 0 61 60" fill="none" xmlns="http://www.w3.org/2000/svg">
<g clip-path="url(#clip0_1_437)">
<path d="M58.2072 -6.10352e-05H3.91099C2.32893 -6.10352e-05 1 1.37099 1 3.0032V44.3307C1 45.9629 2.32893 47.334 3.91099 47.334H25.2371V52.8182H22.7691C19.7316 52.8182 17.2636 55.3645 17.2636 58.4983C17.2636 59.347 17.8964 59.9999 18.7191 59.9999H43.3359C44.1585 59.9999 44.7914 59.347 44.7914 58.4983C44.7914 55.3645 42.3234 52.8182 39.2858 52.8182H36.7545V47.334H58.0807C59.6627 47.334 60.9916 45.9629 60.9916 44.3307V3.0032C61.1182 1.30571 59.7893 -6.10352e-05 58.2072 -6.10352e-05ZM31.0591 44.1349C29.92 44.1349 29.0341 43.2208 29.0341 42.0456C29.0341 40.8704 29.92 39.9564 31.0591 39.9564C32.1982 39.9564 33.0841 40.8704 33.0841 42.0456C33.0841 43.2208 32.1982 44.1349 31.0591 44.1349ZM55.2329 36.8226H6.88526V6.07176H55.2329V36.8226Z" fill="#D25C5C"/>
<path d="M20.875 23.8956H22.5836C22.7735 24.6138 23.0266 25.332 23.4063 25.9849L22.2039 27.16C21.8875 27.4865 21.8875 27.9435 22.2039 28.27L24.4821 30.6203C24.7985 30.9468 25.2415 30.9468 25.5579 30.6203L26.7602 29.3799C27.3931 29.7716 28.0259 30.0327 28.7853 30.2286V31.9261C28.7853 32.3178 29.1017 32.7096 29.5447 32.7096H32.7721C33.1518 32.7096 33.5314 32.3831 33.5314 31.9261V30.1633C34.2276 29.9674 34.9237 29.7063 35.5565 29.3146L36.7588 30.555C37.0753 30.8815 37.5182 30.8815 37.8346 30.555L40.1128 28.2047C40.4292 27.8782 40.4292 27.4212 40.1128 27.0948L38.9104 25.8543C39.2901 25.2014 39.5433 24.5485 39.7331 23.7651H41.4417C41.8214 23.7651 42.2011 23.4386 42.2011 22.9816V19.6519C42.2011 19.2602 41.8847 18.8684 41.4417 18.8684H39.7331C39.5433 18.1503 39.2901 17.4321 38.9104 16.7792L40.1128 15.5387C40.4292 15.2123 40.4292 14.7553 40.1128 14.4288L37.8346 12.0784C37.5182 11.752 37.0753 11.752 36.7588 12.0784L35.5565 13.3189C34.9237 12.9272 34.2908 12.666 33.5314 12.4702V10.7074C33.5314 10.3157 33.215 9.92392 32.7721 9.92392H29.5447C29.165 9.92392 28.7853 10.2504 28.7853 10.7074V12.4702C28.0892 12.666 27.3931 12.9272 26.7602 13.3189L25.4946 12.3396C25.1782 12.0131 24.7352 12.0131 24.4188 12.3396L22.2039 14.6247C21.8875 14.9511 21.8875 15.4081 22.2039 15.7346L23.4063 16.9751C23.0266 17.6279 22.7735 18.2808 22.5836 19.0643H20.875C20.4953 19.0643 20.1156 19.3907 20.1156 19.8478V23.1775C20.1156 23.5039 20.4953 23.8956 20.875 23.8956ZM31.0634 17.3015C33.2783 17.3015 35.0502 19.1296 35.0502 21.4147C35.0502 23.6998 33.2783 25.5278 31.0634 25.5278C28.8486 25.5278 27.0767 23.6998 27.0767 21.4147C27.0767 19.1296 28.8486 17.3015 31.0634 17.3015Z" fill="#015C9E"/>
</g>
<defs>
<clipPath id="clip0_1_437">
<rect width="60" height="60" fill="white" transform="translate(1)"/>
</clipPath>
</defs>
</svg>
