<svg width="60" height="60" viewBox="0 0 60 60" fill="none" xmlns="http://www.w3.org/2000/svg">
<path d="M43.4224 59.0625C43.4224 59.625 42.914 60 42.4055 60H17.5919C16.9817 60 16.575 59.625 16.575 59.0625C16.575 58.5937 16.9817 58.125 17.5919 58.125H19.8292V54.375H40.1682V58.125H42.4055C43.0156 58.125 43.4224 58.5937 43.4224 59.0625Z" fill="#015C9E"/>
<path d="M56.9492 13.6875H52.2712V15.5625H56.9492C57.4576 15.5625 57.9661 15.9375 57.9661 16.5V43.125H2.0339V16.5C2.0339 15.9375 2.44068 15.5625 3.05085 15.5625H7.72881V13.6875H3.05085C1.32203 13.6875 0 14.9063 0 16.5V49.6875C0 51.2813 1.32203 52.5 3.05085 52.5H56.9492C58.5763 52.5 60 51.2813 60 49.6875V16.5C60 15 58.678 13.6875 56.9492 13.6875ZM32.7458 48.75H27.3559C26.8475 48.75 26.339 48.2813 26.339 47.8125C26.339 47.3438 26.8475 46.875 27.3559 46.875H32.7458C33.2542 46.875 33.7627 47.3438 33.7627 47.8125C33.7627 48.2813 33.2542 48.75 32.7458 48.75Z" fill="#015C9E"/>
<path d="M22.8777 18.0939H18.4031V22.9689H22.8777V18.0939Z" fill="#D25C5C"/>
<path d="M22.8777 24.75H18.4031V29.625H22.8777V24.75Z" fill="#D25C5C"/>
<path d="M22.8777 31.5H18.4031V36.375H22.8777V31.5Z" fill="#D25C5C"/>
<path d="M41.5859 18.0939H24.8063V22.9689H41.5859V18.0939Z" fill="#D25C5C"/>
<path d="M41.5859 24.75H24.8063V29.625H41.5859V24.75Z" fill="#D25C5C"/>
<path d="M41.5859 31.5H24.8063V36.375H41.5859V31.5Z" fill="#D25C5C"/>
<path d="M10.3786 8.4375H18.921V0.5625L10.3786 8.4375ZM47.1922 0H20.9549V9.375C20.9549 9.9375 20.5481 10.3125 19.9379 10.3125H9.76842V41.25H50.243V2.8125C50.243 1.21875 48.921 0 47.1922 0ZM27.1582 8.4375H42.0057C42.6159 8.4375 43.0227 8.8125 43.0227 9.375C43.0227 9.9375 42.6159 10.3125 42.0057 10.3125H27.1582C26.5481 10.3125 26.1413 9.9375 26.1413 9.375C26.1413 8.8125 26.5481 8.4375 27.1582 8.4375ZM43.6328 37.3125C43.6328 37.875 43.226 38.25 42.6159 38.25H17.3955C16.8871 38.25 16.3786 37.875 16.3786 37.3125V17.1562C16.3786 16.5938 16.8871 16.2188 17.3955 16.2188H42.7176C43.3277 16.2188 43.7345 16.5938 43.7345 17.1562V37.3125H43.6328ZM10.3786 8.4375H18.921V0.5625L10.3786 8.4375Z" fill="#D25C5C"/>
</svg>
