<svg width="28" height="32" viewBox="0 0 28 32" fill="none" xmlns="http://www.w3.org/2000/svg">
<path d="M14.0027 2C10.1724 2 7.04126 5.26988 7.04126 9.26998C7.04126 13.2701 10.1724 16.54 14.0027 16.54C17.833 16.54 20.9641 13.2701 20.9641 9.26998C20.9641 5.26988 17.833 2 14.0027 2Z" fill="#737B8B"/>
<path d="M25.9487 22.3491C25.7663 21.8729 25.5231 21.4285 25.2495 21.0158C23.8512 18.857 21.6929 17.4284 19.2609 17.0792C18.957 17.0474 18.6226 17.1109 18.3794 17.3014C17.1026 18.2855 15.5827 18.7935 14.0019 18.7935C12.4211 18.7935 10.9012 18.2855 9.62439 17.3014C9.38117 17.1109 9.04678 17.0157 8.74282 17.0792C6.31088 17.4284 4.12217 18.857 2.75422 21.0158C2.48063 21.4285 2.23741 21.9047 2.05506 22.3491C1.96388 22.5396 1.99426 22.7618 2.08543 22.9523C2.32865 23.3968 2.63261 23.8413 2.9062 24.2222C3.33177 24.8254 3.78777 25.3651 4.30458 25.873C4.73015 26.3174 5.21653 26.7302 5.70296 27.1429C8.10446 29.016 10.9924 30.0001 13.9715 30.0001C16.9506 30.0001 19.8386 29.0159 22.2401 27.1429C22.7264 26.7619 23.2128 26.3174 23.6384 25.873C24.1248 25.3651 24.6112 24.8254 25.0368 24.2222C25.3408 23.8095 25.6144 23.3968 25.8576 22.9523C26.0095 22.7618 26.0399 22.5396 25.9487 22.3491Z" fill="#737B8B"/>
</svg>
