<svg width="22" height="24" viewBox="0 0 22 24" fill="none" xmlns="http://www.w3.org/2000/svg">
<path d="M8.5556 14.3979H13.4445V22.7997H8.5556V14.3979Z" fill="#D25C5C"/>
<path d="M21.2911 9.81302L11.8678 0.355033C11.7542 0.242535 11.619 0.153243 11.4701 0.0923077C11.3212 0.0313725 11.1614 0 11.0001 0C10.8387 0 10.679 0.0313725 10.53 0.0923077C10.3811 0.153243 10.2459 0.242535 10.1323 0.355033L0.709025 9.82502C0.481005 10.0508 0.300921 10.3187 0.17923 10.6134C0.057538 10.908 -0.00333637 11.2234 0.000141 11.5414V21.5995C-0.000806001 22.2139 0.238196 22.8053 0.667928 23.2519C1.09766 23.6985 1.6854 23.9662 2.31013 24H6.11121V13.1977C6.11121 12.8794 6.23998 12.5741 6.46919 12.349C6.6984 12.1239 7.00927 11.9975 7.33343 11.9975H14.6667C14.9909 11.9975 15.3017 12.1239 15.5309 12.349C15.7602 12.5741 15.8889 12.8794 15.8889 13.1977V24H19.69C20.3147 23.9662 20.9025 23.6985 21.3322 23.2519C21.7619 22.8053 22.0009 22.2139 22 21.5995V11.5414C22.001 10.8968 21.7468 10.277 21.2911 9.81302Z" fill="#D25C5C"/>
</svg>
