<svg width="60" height="60" viewBox="0 0 60 60" fill="none" xmlns="http://www.w3.org/2000/svg">
<path d="M30 0C13.4211 0 0 11.5909 0 25.9091V45.6818H3.15789H4.73684H6.31579C12 45.6818 16.5789 41.7273 16.5789 36.8182V33.4091C16.5789 28.5 12 24.5455 6.31579 24.5455H4.81579C5.60526 13.1591 16.6579 4.09091 30 4.09091C43.3421 4.09091 54.3947 13.1591 55.1842 24.5455H53.6842C48 24.5455 43.4211 28.5 43.4211 33.4091V36.8182C43.4211 41.7273 48 45.6818 53.6842 45.6818H53.7632C50.8421 51.6818 43.9737 55.9091 36 55.9091C34.7368 55.9091 33.5526 55.2955 32.9211 54.4773C36.1579 53.4545 38.4474 50.7273 38.4474 47.5909C38.5263 43.5682 34.6579 40.2273 30 40.2273C25.3421 40.2273 21.4737 43.5 21.4737 47.5909C21.4737 51 24.2368 53.9318 27.9474 54.6818C28.9737 57.75 32.2105 60 36.0789 60C49.2632 60 60 50.7273 60 39.3409V25.9091C60 11.5909 46.5789 0 30 0ZM26.2105 47.5909C26.2105 45.8182 27.8684 44.3182 30 44.3182C32.0526 44.3182 33.7895 45.75 33.7895 47.5909C33.7895 49.3636 32.1316 50.8636 30 50.8636C27.9474 50.8636 26.2105 49.3636 26.2105 47.5909Z" fill="#D25C5C"/>
</svg>
