<svg width="28" height="28" viewBox="0 0 28 28" fill="none" xmlns="http://www.w3.org/2000/svg">
<path d="M23.8021 7.09091H19.1537V5.75273C19.1537 3.68727 17.6884 2 15.8947 2H12.1053C10.3116 2 8.84632 3.68727 8.84632 5.75273V7.09091H4.17263C2.96 7.09091 2 8.22545 2 9.59273V12.9382C2 13.3745 2.30316 13.7236 2.68211 13.7236H12.6105V13.1127C12.6105 12.8218 12.8126 12.5891 13.0653 12.5891H14.9347C15.1874 12.5891 15.3895 12.8218 15.3895 13.1127V13.7236H25.3179C25.6968 13.7236 26 13.3745 26 12.9382V9.62182C26 8.22545 25.0147 7.09091 23.8021 7.09091ZM11.2716 5.75273C11.2716 5.22909 11.6505 4.79273 12.1053 4.79273H15.8947C16.3495 4.79273 16.7284 5.22909 16.7284 5.75273V7.09091H11.2716V5.75273Z" fill="#737B8B"/>
<path d="M24.3579 15.1782H15.3642C15.2884 15.9637 14.7073 16.5455 14 16.5455C13.2926 16.5455 12.7368 15.9346 12.661 15.1782H3.64207C3.26312 15.1782 2.95996 15.5273 2.95996 15.9637V23.4982C2.95996 24.8946 3.94522 26 5.13259 26H22.8421C24.0547 26 25.04 24.8655 25.04 23.4691V15.9637C25.04 15.5273 24.7368 15.1782 24.3579 15.1782Z" fill="#737B8B"/>
</svg>
