<svg width="163" height="52" viewBox="0 0 163 52" fill="none" xmlns="http://www.w3.org/2000/svg">
<g clip-path="url(#clip0_1_217)">
<path d="M162.288 15.3153C160.814 11.0869 156.794 8.05052 152.075 8.05052H151.976C148.908 8.05052 146.142 9.33115 144.174 11.3873C142.202 9.33115 139.436 8.05052 136.371 8.05052H136.272C133.575 8.05052 131.11 9.04114 129.216 10.6802V9.84666C129.151 9.01637 128.47 8.364 127.629 8.364H120.389C119.503 8.364 118.788 9.08154 118.788 9.97245V49.4054C118.788 50.297 119.504 51.0139 120.389 51.0139H127.629C128.436 51.0139 129.1 50.4091 129.206 49.627L129.203 21.3189C129.203 21.2198 129.206 21.1279 129.217 21.0354C129.332 19.7717 130.255 18.7335 131.713 18.6032H133.048C133.658 18.6579 134.172 18.873 134.577 19.1975C135.207 19.6994 135.558 20.4717 135.558 21.3189L135.585 49.4876C135.585 50.3791 136.304 51.0999 137.185 51.0999H144.426C145.28 51.0999 145.976 50.4169 146.016 49.5664L146.013 21.2818C146.01 20.3524 146.439 19.5123 147.191 19.0138C147.562 18.7746 148.009 18.6143 148.523 18.566H149.858C151.424 18.7029 152.371 19.8949 152.368 21.2818L152.395 49.4126C152.395 50.3042 153.114 51.0211 153.996 51.0211H161.236C162.118 51.0211 162.836 50.3035 162.836 49.4126V19.1578C162.836 17.0944 162.605 16.2166 162.288 15.3153ZM113.272 8.46697H109.131V1.71775C109.131 0.908316 108.477 0.252686 107.67 0.252686C107.574 0.252686 107.483 0.266372 107.394 0.283316C102.803 1.547 103.722 7.92409 95.3415 8.46697H94.5272C94.4044 8.46697 94.2887 8.48392 94.1763 8.50803H94.1698L94.1763 8.51129C93.4609 8.67161 92.9228 9.30704 92.9228 10.0722V17.3343C92.9228 18.2187 93.6415 18.9395 94.5266 18.9395H98.896L98.8895 49.7313C98.8895 50.6092 99.5978 51.3196 100.473 51.3196H107.632C108.504 51.3196 109.212 50.6092 109.212 49.7313L109.215 18.9395H113.271C114.153 18.9395 114.872 18.2187 114.872 17.3343V10.0728C114.873 9.18777 114.154 8.46697 113.272 8.46697Z" fill="#202C51"/>
<path d="M87.2198 8.46712H79.9795C79.0977 8.46712 78.3823 9.18793 78.3823 10.0723V25.0873C78.3654 26.0167 77.6161 26.7609 76.6862 26.7609H73.6554C72.7158 26.7609 71.9562 26.003 71.9562 25.0599L71.9289 10.0723C71.9289 9.18793 71.2102 8.46712 70.3284 8.46712H63.0874C62.2017 8.46712 61.4869 9.18793 61.4869 10.0723V26.5289C61.4869 32.7796 65.931 37.2367 72.1667 37.2367C72.1667 37.2367 76.8461 37.2367 76.989 37.264C77.8338 37.3599 78.4908 38.0702 78.4908 38.9448C78.4908 39.809 77.8468 40.5161 77.0124 40.6217C76.9715 40.6282 76.9338 40.6387 76.8896 40.6458L66.3014 40.6836C65.4157 40.6836 64.7009 41.4044 64.7009 42.2888V49.547C64.7009 50.4353 65.4164 51.1522 66.3014 51.1522H78.1392C84.3782 51.1522 88.819 46.6984 88.819 40.4444V10.073C88.8204 9.18793 88.1055 8.46712 87.2198 8.46712ZM17.7746 8.46582H1.94888C1.08071 8.46582 0.378906 9.17229 0.378906 10.0404V17.1552C0.378906 17.1689 0.382155 17.1826 0.382155 17.1963C0.382155 17.2302 0.378906 17.2647 0.378906 17.2953V49.4968C0.378906 50.3714 1.03263 51.0851 1.84361 51.1053H9.22039C10.1022 51.1053 10.8209 50.3877 10.8209 49.5001L10.8482 38.4645H17.7753C23.5717 38.4645 27.611 34.431 27.611 28.5936V18.3505C27.6104 12.513 23.5711 8.46582 17.7746 8.46582ZM17.1378 26.2539C17.1378 27.193 16.3782 27.9581 15.4418 27.9581L10.8475 27.9614V18.982H15.4418C16.3782 18.982 17.1378 19.7399 17.1378 20.683V26.2539ZM46.0283 8.50688H35.982C35.0931 8.50688 34.3744 9.18336 34.3744 10.013V12.8376C34.3744 12.8545 34.3776 12.8754 34.3776 12.8923C34.3776 12.9125 34.3744 12.9334 34.3744 12.9536V16.8235C34.3744 17.7014 35.1372 18.4182 36.0769 18.4182H45.6436C46.3993 18.5375 46.9991 19.0908 47.0842 19.955V20.8909C46.9991 21.714 46.4065 22.3149 45.6845 22.3833H40.9473C34.6466 22.3833 30.1583 26.581 30.1583 32.4765V40.9195C30.1583 46.7805 34.0169 50.9508 40.2728 50.9508H53.4018C55.7587 50.9508 57.6692 49.1612 57.6692 46.9577V19.4063C57.6692 12.7255 54.2362 8.50688 46.0283 8.50688ZM47.1797 39.9543C47.1797 40.0469 47.1661 40.1355 47.1525 40.2209C47.1354 40.3011 47.1126 40.3799 47.0842 40.4568C46.8594 41.0923 46.2258 41.553 45.4733 41.553H42.4594C41.5198 41.553 40.753 40.8355 40.753 39.9543V38.5844C40.753 38.5675 40.7498 38.5505 40.7498 38.5329L40.753 34.8885V33.748L40.7563 33.7376C40.7595 32.8597 41.5191 32.1493 42.4588 32.1493H45.4727C46.4162 32.1493 47.1791 32.863 47.1791 33.748V39.9543H47.1797Z" fill="#202C51"/>
</g>
<defs>
<clipPath id="clip0_1_217">
<rect width="162.456" height="51.0949" fill="white" transform="translate(0.378906 0.23877)"/>
</clipPath>
</defs>
</svg>
