<svg width="60" height="60" viewBox="0 0 60 60" fill="none" xmlns="http://www.w3.org/2000/svg">
<path d="M58.5994 43.1081L52.7473 37.5996L46.7926 43.2047L41.5793 48.112L30.8155 58.2437L31.7531 59.1264C32.7931 60.1053 34.4119 60.2819 35.662 59.553L45.9067 53.5808L46.69 54.318C48.5513 56.0702 51.569 56.0702 53.4304 54.318L56.0149 51.8852L58.5994 49.4525C60.4609 47.7007 60.4609 44.8601 58.5994 43.1081Z" fill="#D25C5C"/>
<path d="M31.8481 51.2294L34.9547 48.0962C33.2208 46.5728 32.5384 45.0652 32.8689 43.4869C32.9497 43.1009 33.0834 42.7507 33.2301 42.4498C34.7336 43.4505 36.2121 44.5592 37.6196 45.7869L43.5744 40.1817L49.529 34.5765C41.2717 26.1874 38.0408 15.1212 37.3392 12.3824L39.6723 10.1863L36.453 7.15588L8.35303 33.6062L11.5724 36.6366L14.0414 34.3127C16.1017 34.7801 22.5961 36.4418 29.3773 40.131C27.954 42.6893 27.1054 47.0626 31.8481 51.2294Z" fill="#D25C5C"/>
<path d="M8.71579 21.7286H0V26.0144H8.71579V21.7286Z" fill="#015C9E"/>
<path d="M15.5286 11.9263L9.36569 6.12512L6.1462 9.15561L12.3091 14.9567L15.5286 11.9263Z" fill="#015C9E"/>
<path d="M27.6249 0H23.0718V8.20395H27.6249V0Z" fill="#015C9E"/>
</svg>
