<svg width="60" height="60" viewBox="0 0 60 60" fill="none" xmlns="http://www.w3.org/2000/svg">
<path d="M27.7691 60.0001C30.3436 60.0001 32.4313 58.3444 32.4313 56.3007V26.9753L34.5119 19.3528C35.5171 19.9534 36.6791 20.6048 37.9849 21.2607C42.5638 23.5463 48.8609 25.9354 55.9634 25.9531C56.3544 25.9531 56.7409 25.945 57.1232 25.9309C58.7875 25.8699 60.0736 24.7495 59.9967 23.4287C59.9191 22.1085 58.5078 21.0875 56.8442 21.1485C56.5429 21.1596 56.2492 21.1653 55.9634 21.1653C50.656 21.1829 45.2412 19.2507 41.2105 17.2147C39.1963 16.2036 37.5305 15.1844 36.3847 14.427C35.8112 14.0482 35.3678 13.7349 35.0737 13.5215C34.927 13.4147 34.8173 13.3327 34.7475 13.2803C34.7124 13.2537 34.6879 13.2354 34.6732 13.2235C34.6608 13.2142 34.6608 13.2136 34.6608 13.2142C34.4606 13.0571 34.2381 12.9287 34.0032 12.8252C33.9893 12.8186 33.9753 12.8123 33.9614 12.8057C33.944 12.7983 33.9274 12.7908 33.9097 12.7839C33.3121 12.5134 32.6029 12.3545 31.8397 12.3545H30.9167C29.6249 15.1679 26.2205 17.1827 22.2332 17.1827C18.2474 17.1827 14.843 15.1679 13.5516 12.3545H12.6297C12.1207 12.3545 11.6362 12.426 11.192 12.5526C11.1656 12.558 11.1389 12.5613 11.1125 12.5676L11.1117 12.567C11.0261 12.5891 8.69519 13.1184 6.20062 14.0467C4.94655 14.5186 3.65025 15.0755 2.48403 15.8394C1.90224 16.2263 1.34119 16.6692 0.863844 17.2539C0.735646 17.411 0.614236 17.5837 0.504137 17.7677C0.20853 18.2588 -0.000356664 18.8402 2.03866e-05 19.483C-0.00148782 19.877 0.0807093 20.2861 0.239071 20.6685H0.238317C0.612351 21.5686 1.33629 22.2677 2.16542 22.8222C3.42704 23.6549 5.00952 24.2747 7.14513 24.883C9.28075 25.4845 11.977 26.0473 15.4255 26.5902C15.6235 26.6213 15.8211 26.6362 16.0153 26.6362C17.4247 26.6362 18.6855 25.8472 18.9706 24.7077C19.2945 23.4108 18.2319 22.1513 16.5978 21.8942C12.267 21.2155 9.35578 20.5072 7.66433 19.8983C7.17077 19.7229 6.78807 19.5569 6.5049 19.4162C6.65949 19.3202 6.84085 19.2172 7.04635 19.117C7.09348 19.0927 7.14664 19.0685 7.19566 19.0443C7.88792 18.7046 8.75966 18.3683 9.60803 18.081L10.1318 20.0003C11.6305 20.3875 13.7526 20.8382 16.7433 21.3065C17.7316 21.4621 18.5845 21.9137 19.1448 22.5777C19.7043 23.2423 19.9057 24.0401 19.7104 24.8238C19.3597 26.2212 17.8059 27.2353 16.0149 27.2353C15.7698 27.2353 15.5213 27.2156 15.2777 27.177C14.0806 26.9887 12.9713 26.7963 11.9329 26.6L12.0351 26.9753V56.3007C12.0351 58.3444 14.1228 60.0001 16.6966 60.0001C19.2711 60.0001 21.3588 58.3444 21.3588 56.3007V29.2878H23.1064V56.3004C23.1072 58.3445 25.1949 60.0001 27.7691 60.0001ZM22.234 18.6523C22.9624 18.6523 23.5536 19.1212 23.5536 19.6996C23.5536 20.2783 22.9624 20.7469 22.234 20.7469C21.5047 20.7469 20.9143 20.2783 20.9143 19.6996C20.9143 19.1212 21.5047 18.6523 22.234 18.6523ZM22.234 24.8612C21.5047 24.8612 20.9143 24.3926 20.9143 23.8138C20.9143 23.2357 21.5047 22.7665 22.234 22.7665C22.9624 22.7665 23.5536 23.2357 23.5536 23.8138C23.5536 24.3926 22.962 24.8612 22.234 24.8612Z" fill="#D25C5C"/>
<path d="M22.2443 16.5834C26.9302 16.5834 30.7279 13.5692 30.7279 9.85056C30.7279 9.02795 30.5416 8.24006 30.2015 7.51141C29.1541 7.97523 25.7987 9.32599 22.2443 9.32599C18.6894 9.32599 15.3348 7.97493 14.2881 7.51141C13.9476 8.24006 13.7606 9.02795 13.7606 9.85056C13.7606 13.5692 17.559 16.5834 22.2443 16.5834Z" fill="#D25C5C"/>
<path d="M14.9427 7.13176C14.9427 7.13176 18.0843 8.57828 22.2319 8.57828C26.3795 8.57828 29.5218 7.13176 29.5218 7.13176V1.95074C28.3171 2.47531 25.5066 2.84307 22.2319 2.84307C18.958 2.84307 16.1482 2.47531 14.9427 1.95074V7.13176Z" fill="#015C9E"/>
<path d="M22.2177 2.39391C26.296 2.39391 29.6022 1.85801 29.6022 1.19695C29.6022 0.535894 26.296 0 22.2177 0C18.1393 0 14.8331 0.535894 14.8331 1.19695C14.8331 1.85801 18.1393 2.39391 22.2177 2.39391Z" fill="#015C9E"/>
</svg>
