<svg width="205" height="61" viewBox="0 0 205 61" fill="none" xmlns="http://www.w3.org/2000/svg">
<path d="M20.2799 60.9011C20.239 60.8764 20.1981 60.8351 20.1573 60.7939C19.4383 59.8946 15.01 54.2759 10.5 47.0648C9.14376 44.7711 8.26954 42.9725 8.43294 42.5105C8.87414 41.3059 16.7421 40.6458 19.1687 41.7349C19.904 42.0649 19.8877 42.5022 19.8877 42.758C19.8877 43.8636 19.8305 46.8173 19.8305 46.8173C19.8305 47.4279 20.3207 47.9229 20.9253 47.9229C21.5299 47.9229 22.0201 47.4278 22.0201 46.8091L22.0119 39.433C22.0119 38.7894 21.3256 38.6327 21.1949 38.6079C19.9285 38.5997 17.3631 38.5914 14.6015 38.5914C8.51464 38.5914 7.15838 38.8472 6.12075 38.1624C3.87392 36.6938 0.213639 26.694 0.123766 21.0671C0.0012117 13.13 4.6501 6.25719 11.1863 2.84968C13.9152 1.45532 17.0036 0.671509 20.2635 0.671509C30.6153 0.671509 39.1369 8.58387 40.2725 18.7652V18.7899C40.4768 21.2486 27.0857 21.7766 24.4385 21.0588C24.03 20.9516 23.932 20.5308 23.932 20.3493C23.932 18.4764 23.9156 13.2125 23.9156 13.2125C23.9156 12.6019 23.4254 12.1069 22.8208 12.1069C22.2162 12.1069 21.726 12.6019 21.726 13.2207L21.7505 22.9235C21.7668 23.534 22.2734 23.699 22.4123 23.7238H30.7215C35.1579 23.7238 37.0208 24.2436 38.2545 25.2006C39.0797 25.8359 39.3983 27.057 39.1205 28.6412C36.6368 42.7167 20.8763 60.1668 20.2799 60.9011ZM63.0104 28.0224C66.9893 29.7467 69.4486 31.6609 69.4486 35.8687C69.4486 40.159 66.2377 42.9313 61.2702 42.9313C57.2422 42.9313 54.0149 41.0831 52.4054 37.8654L52.144 37.3456L56.8745 34.5651L57.185 35.0767C58.2472 36.8423 59.44 37.5931 61.1721 37.5931C62.6591 37.5931 63.664 36.9248 63.664 35.9265C63.664 34.8209 62.9369 34.4084 60.6982 33.4183L59.5626 32.9232C56.5232 31.6114 53.7126 29.788 53.7126 25.3739C53.7126 21.4054 56.7111 18.6414 61.0087 18.6414C64.2605 18.6414 66.4991 19.9202 68.0351 22.6594L68.3211 23.171L63.7376 26.1577L63.4189 25.5884C62.6509 24.2023 61.9319 23.9218 61.0169 23.9218C60.061 23.9218 59.44 24.4581 59.44 25.2914C59.44 26.2485 59.8975 26.6693 61.8829 27.5356L63.0104 28.0224ZM96.5167 28.8309L99.8584 19.3922H105.594L97.0968 43.319H95.8223L90.6668 32.1147C90.4299 31.6031 90.1766 30.9678 89.9642 30.382C89.7436 30.9678 89.4903 31.6031 89.2534 32.1229L83.8937 43.3273H82.6273L73.9913 19.4004H80.119L83.4933 28.8392C83.7057 29.4415 83.9263 30.1758 84.1224 30.8523C84.3512 30.151 84.629 29.392 84.9149 28.7814L89.3514 19.2024H90.5769L95.0788 28.7814C95.3647 29.392 95.6425 30.151 95.8713 30.8523C96.0755 30.1675 96.3043 29.4332 96.5167 28.8309ZM112.277 42.6342V18.9054H118.062V42.6342H112.277ZM137.041 34.6559V29.3507H147.785V39.9858L147.565 40.1673C146.339 41.1904 143.079 42.923 138.659 42.923C131.208 42.923 126.011 37.9231 126.011 30.7616C126.011 23.732 131.028 18.6331 137.948 18.6331C141.747 18.6331 144.542 19.7222 146.47 21.9499L146.846 22.3872L142.899 26.3475L142.475 25.902C141.372 24.7551 140.228 24.0373 137.956 24.0373C134.419 24.0373 131.943 26.8013 131.943 30.7616C131.943 34.8869 134.582 37.5518 138.675 37.5518C140.032 37.5518 141.445 37.3126 142.409 36.933V34.6476L137.041 34.6559ZM166.373 34.6559V29.3507H177.117V39.9858L176.896 40.1673C175.662 41.1904 172.411 42.923 167.99 42.923C160.539 42.923 155.343 37.9231 155.343 30.7616C155.343 23.732 160.359 18.6331 167.271 18.6331C171.079 18.6331 173.865 19.7222 175.793 21.9499L176.169 22.3872L172.223 26.3475L171.79 25.902C170.687 24.7551 169.543 24.0373 167.263 24.0373C163.725 24.0373 161.25 26.8013 161.25 30.7616C161.25 34.8869 163.889 37.5518 167.982 37.5518C169.338 37.5518 170.752 37.3126 171.716 36.933V34.6476L166.373 34.6559ZM198.335 18.9054H204.381L196.08 34.6971V42.6342H190.263V35.0354L181.414 18.9137H187.869L191.954 26.4795C192.395 27.3046 192.853 28.3936 193.204 29.2765C193.539 28.4019 193.972 27.3211 194.413 26.4877L198.335 18.9054Z" fill="#202C51"/>
</svg>
