<svg width="60" height="49" viewBox="0 0 60 49" fill="none" xmlns="http://www.w3.org/2000/svg">
<path d="M54.8812 43.8114C60.9485 43.1419 59.9483 36.8936 59.9483 36.8936C59.9483 36.8936 59.7483 30.571 53.7477 31.2404C51.1474 31.3892 46.2803 33.9183 45.9469 38.0838C45.9469 38.3813 45.9469 38.6789 46.0136 38.902C47.0803 42.9187 52.2809 44.2577 54.8812 43.8114Z" fill="#015C9E"/>
<path d="M23.4704 12.9417C23.6704 13.0905 23.8704 13.2393 24.0705 13.3136C27.2041 14.2806 30.6045 10.7102 31.5379 8.40429C33.9381 3.1974 29.4043 0.965874 29.4043 0.965874C29.4043 0.965874 25.1372 -1.86072 22.737 3.34617C21.5369 5.50331 20.9368 10.6358 23.4704 12.9417Z" fill="#D25C5C"/>
<path d="M44.738 36.2242C44.738 34.6621 44.4046 33.1 42.4711 31.9099C41.4043 31.2404 40.2042 31.0173 39.0707 30.9429C36.8705 30.8685 34.5369 31.8355 32.3367 32.5793C30.2698 33.2488 28.3363 34.5133 26.2694 35.1084C22.469 36.1498 19.0687 34.9596 15.8016 33.1C11.8679 30.9429 7.86748 31.538 4.8005 33.1744C3.13366 34.1414 1.73351 35.6291 0.400042 37.1168C0.133347 37.4887 0 37.8606 0 38.3069V41.9517C0 42.1749 0.200021 42.398 0.400042 42.398H29.0697C29.203 42.398 29.3364 42.398 29.4031 42.3237C31.6033 40.5384 34.0035 40.4641 34.0035 40.4641C32.4034 40.836 28.3363 43.8857 28.0029 45.4478C27.7362 46.7123 28.5363 48.1256 30.5365 48.1256L43.2712 48.2C43.4712 48.2 43.6045 48.0512 43.6045 47.8281V45.4478C43.6045 45.299 43.5379 45.1503 43.4045 45.1503C42.4711 44.8527 38.7374 43.737 35.8704 43.8113C35.8704 43.737 35.8704 43.8113 35.8704 43.737C37.2705 43.2907 44.738 40.3897 44.738 36.2242Z" fill="#015C9E"/>
<path d="M0.333368 47.6789H26.4027C26.4694 47.4557 26.2694 47.1582 26.2027 47.0838C26.1361 46.935 26.1361 46.7119 26.1361 46.5631C26.0694 45.7449 26.5361 44.8523 27.0028 44.2572C27.0695 44.1828 27.0028 44.0341 26.9361 44.0341H0.333368C0.133347 44.0341 0 44.1828 0 44.406V47.2326C0 47.4557 0.133347 47.6789 0.333368 47.6789Z" fill="#015C9E"/>
<path d="M17.3305 15.917C17.3305 15.917 13.7301 21.1983 12.8634 28.7855C12.7967 29.2318 13.0634 29.6781 13.4634 29.8268C18.0639 31.4633 22.0643 34.7362 24.998 32.8766C25.3313 32.6534 25.398 32.2815 25.3313 31.9096L23.6645 23.2067C23.5978 22.8347 23.9979 22.686 24.1979 22.9091L28.5983 28.1904C28.665 28.2648 28.7317 28.2648 28.7984 28.2648L37.5993 29.7525C37.9993 29.8268 38.3327 29.5293 38.466 29.1574L38.8661 27.5209C38.9994 27.0746 38.7327 26.6283 38.3327 26.4796L31.1986 24.1736C31.1319 24.1736 31.0653 24.0993 31.0653 24.0249L25.0646 15.5451C24.4646 14.7269 23.6645 13.983 22.7977 13.6855C21.3976 13.1648 19.3974 13.2392 17.3305 15.917Z" fill="#D25C5C"/>
</svg>
