<svg width="60" height="60" viewBox="0 0 60 60" fill="none" xmlns="http://www.w3.org/2000/svg">
<path d="M14.5797 0C10.3542 0 6.89189 3.21383 6.89189 7.16153C6.89189 11.0839 10.3542 14.2978 14.5797 14.2978C18.8053 14.2978 22.2676 11.0839 22.2676 7.16153C22.2676 3.21383 18.8053 0 14.5797 0ZM19.2688 14.2978C17.6058 14.2978 15.8883 14.9557 14.4434 16.0692C13.0258 17.1826 11.8808 19.0046 12.3988 21.0544C14.7161 28.5449 15.8883 36.415 17.9057 42.8174C18.3964 43.7031 19.0507 44.5382 19.8958 45.2214C20.7682 45.9047 21.8314 46.4867 23.1127 46.4867H37.0708C41.8961 50.5863 46.4216 55.0401 51.3015 59.0637C53.7551 60.6326 56.972 60.1518 58.744 58.2033C60.6251 55.7992 60.1616 53.6989 58.853 52.0287C52.9645 46.2843 47.0214 40.5145 41.1056 34.7448C40.8329 34.4665 40.3967 34.3146 39.9878 34.3146H28.8922L27.72 30.291L28.6741 30.6453C28.9468 30.7465 29.2466 30.7718 29.5465 30.7212L41.8144 28.5702C41.9507 28.5449 42.087 28.4943 42.2233 28.4437C44.3497 27.4568 45.5765 25.4829 45.3584 23.4838C45.3039 20.0169 42.3596 18.4226 39.8515 18.5997C36.6891 19.0553 33.4995 19.5108 30.3371 19.941L20.0594 14.4749C19.814 14.3484 19.5414 14.2978 19.2688 14.2978ZM55.6907 15.5124L41.0783 31.2273C40.424 31.7587 40.4513 32.8469 41.1055 33.3783C41.7598 33.9097 42.9048 33.7579 43.3955 33.0746L58.0079 17.3598C58.5259 16.4488 58.3896 15.8667 57.7626 15.2847C56.972 14.8039 56.454 14.9304 55.6907 15.5124Z" fill="#D25C5C"/>
<path d="M5.47599 15.0063C4.19468 15.0063 2.91337 15.4365 1.74111 16.2969C1.16861 16.7018 0.62337 17.2585 0.268966 17.9924C-0.030915 18.6503 -0.0854387 19.4854 0.132656 20.2952C2.58623 31.7334 4.90349 43.5006 7.02991 53.3445C7.92955 55.8498 10.1105 57.8996 13.1093 57.8996H33.0105C35.9548 57.5959 38.3538 55.4449 38.4083 52.889C38.4083 50.0295 36.0911 47.1699 33.0105 47.1699H17.444C15.3993 37.9839 13.5728 28.722 11.5281 19.536C11.0374 18.1695 10.0832 17.0561 8.99277 16.2969C7.92955 15.5124 6.75729 15.0063 5.47599 15.0063ZM5.47599 17.8658C6.8936 17.8658 8.09313 19.207 8.55658 20.447C10.6285 29.8861 12.6186 39.401 14.636 48.8654C14.7723 49.5234 15.4538 50.0295 16.1626 50.0295H33.0105C34.5644 50.0295 35.3277 51.4466 35.3277 52.889C35.3277 54.3062 34.1555 54.787 33.0105 55.04H13.1093C11.5009 55.04 10.6285 54.2049 9.9742 52.4335C7.54789 40.97 5.14884 29.38 3.1042 19.536C3.02242 19.3336 3.02242 19.283 3.1042 19.1311C3.73123 18.372 4.57634 17.8658 5.47599 17.8658Z" fill="#015C9E"/>
</svg>
