<svg width="60" height="60" viewBox="0 0 60 60" fill="none" xmlns="http://www.w3.org/2000/svg">
<circle cx="30" cy="30" r="30" fill="#737B8B"/>
<path d="M30.499 25.5096C31.8797 25.5096 32.999 24.5001 32.999 23.2548C32.999 22.0095 31.8797 21 30.499 21C29.1183 21 27.999 22.0095 27.999 23.2548C27.999 24.5001 29.1183 25.5096 30.499 25.5096Z" fill="white"/>
<path d="M30.499 33.2436C31.8797 33.2436 32.999 32.2341 32.999 30.9888C32.999 29.7435 31.8797 28.734 30.499 28.734C29.1183 28.734 27.999 29.7435 27.999 30.9888C27.999 32.2341 29.1183 33.2436 30.499 33.2436Z" fill="white"/>
<path d="M30.499 41C31.8797 41 32.999 39.9905 32.999 38.7452C32.999 37.4999 31.8797 36.4904 30.499 36.4904C29.1183 36.4904 27.999 37.4999 27.999 38.7452C27.999 39.9905 29.1183 41 30.499 41Z" fill="white"/>
</svg>
