<svg width="60" height="60" viewBox="0 0 60 60" fill="none" xmlns="http://www.w3.org/2000/svg">
<g clip-path="url(#clip0_1_266)">
<path d="M19.1884 9.90871C19.1884 4.85974 14.917 0.694336 9.59428 0.694336C4.33724 0.694336 0.000183105 4.79663 0.000183105 9.90871C0.000183105 14.9577 4.27153 19.1231 9.59428 19.1231C14.917 19.06 19.1884 14.9577 19.1884 9.90871ZM8.74001 15.3364V14.3897C7.55718 14.2635 6.70291 13.3799 6.57148 12.307C6.57148 12.2439 6.57148 12.1176 6.6372 12.0545C6.70291 11.9914 6.76862 11.9283 6.90005 11.9283H8.01717C8.14859 11.9283 8.28002 12.0545 8.34573 12.1807C8.41145 12.4963 8.6743 12.6856 9.00286 12.6856H9.98856C10.5143 12.6856 10.9743 12.307 11.04 11.8021C11.04 11.5496 10.9743 11.2341 10.7771 11.0447C10.58 10.8554 10.3171 10.7292 10.0543 10.7292H9.33143C7.82003 10.7292 6.57148 9.65626 6.44006 8.33091C6.30863 6.94244 7.29433 5.6802 8.74001 5.42775V4.48107C8.74001 4.29173 8.87144 4.16551 9.06858 4.16551H10.1857C10.3828 4.16551 10.5143 4.29173 10.5143 4.48107V5.42775C11.6314 5.55397 12.5514 6.43754 12.6828 7.51045C12.6828 7.57356 12.6828 7.69979 12.6171 7.7629C12.5514 7.82601 12.4857 7.88912 12.3542 7.88912H11.2371C11.1057 7.88912 10.9743 7.7629 10.9085 7.63667C10.8428 7.32111 10.58 7.13178 10.2514 7.13178H9.26571C8.74001 7.13178 8.28002 7.51045 8.21431 8.01535C8.21431 8.2678 8.28002 8.58336 8.47716 8.77269C8.6743 8.96203 8.93715 9.08825 9.2 9.08825H10.0543C10.8428 9.08825 11.5657 9.40381 12.0914 9.97182C12.6171 10.5398 12.8799 11.2972 12.8142 12.0545C12.6828 13.1905 11.7628 14.1372 10.5143 14.3897V15.3995C10.5143 15.5888 10.3828 15.715 10.1857 15.715H9.06858C8.87144 15.6519 8.74001 15.5257 8.74001 15.3364Z" fill="#D25C5C"/>
<path d="M53.424 25.4974C53.424 23.8565 52.0441 22.5311 50.3355 22.5311H44.2899L39.3614 17.2928C37.9158 15.7781 35.8787 14.8945 33.7758 14.8945H27.8617C25.7589 14.8945 23.656 15.7781 22.2761 17.2928L17.3476 22.5311H11.302C9.59347 22.5311 8.2135 23.8565 8.2135 25.4974C8.2135 27.1383 9.59347 28.4636 11.302 28.4636H18.7276C19.5818 28.4636 20.4361 28.085 21.0275 27.4538L23.1961 25.1818V56.801C23.1961 58.3157 24.2475 59.641 25.7589 59.8935C27.7303 60.2091 29.3731 58.7575 29.3731 56.9903V38.5616H32.3959V56.8641C32.3959 58.3788 33.4473 59.7042 34.9587 59.9566C36.9301 60.2722 38.5729 58.8206 38.5729 57.0535V25.1818L40.7414 27.4538C41.3328 28.085 42.1871 28.4636 43.0414 28.4636H50.4669C52.0441 28.4636 53.424 27.1383 53.424 25.4974Z" fill="#015C9E"/>
<path d="M30.7506 13.2536C34.5613 13.2536 37.6504 10.2866 37.6504 6.62678C37.6504 2.96691 34.5613 0 30.7506 0C26.9399 0 23.8507 2.96691 23.8507 6.62678C23.8507 10.2866 26.9399 13.2536 30.7506 13.2536Z" fill="#015C9E"/>
<path d="M58.2868 32.9445H44.6843C43.6986 32.9445 42.9757 33.7018 42.9757 34.5854V54.9706C42.9757 55.9173 43.7643 56.6115 44.6843 56.6115H58.2868C59.2725 56.6115 59.9954 55.8542 59.9954 54.9706V34.5854C59.9954 33.7018 59.2068 32.9445 58.2868 32.9445ZM46.9842 53.8977C46.2614 53.8977 45.6042 53.3297 45.6042 52.5723C45.6042 51.815 46.1956 51.247 46.9842 51.247C47.707 51.247 48.3642 51.815 48.3642 52.5723C48.3642 53.3297 47.7728 53.8977 46.9842 53.8977ZM46.9842 50.0478C46.2614 50.0478 45.6042 49.4798 45.6042 48.7225C45.6042 48.0283 46.1956 47.3971 46.9842 47.3971C47.707 47.3971 48.3642 47.9651 48.3642 48.7225C48.3642 49.4167 47.7728 50.0478 46.9842 50.0478ZM46.9842 46.198C46.2614 46.198 45.6042 45.63 45.6042 44.8726C45.6042 44.1784 46.1956 43.5473 46.9842 43.5473C47.707 43.5473 48.3642 44.1153 48.3642 44.8726C48.3642 45.5669 47.7728 46.198 46.9842 46.198ZM51.4527 53.8977C50.7298 53.8977 50.0727 53.3297 50.0727 52.5723C50.0727 51.815 50.6641 51.247 51.4527 51.247C52.1755 51.247 52.8327 51.815 52.8327 52.5723C52.8327 53.3297 52.2412 53.8977 51.4527 53.8977ZM51.4527 50.0478C50.7298 50.0478 50.0727 49.4798 50.0727 48.7225C50.0727 48.0283 50.6641 47.3971 51.4527 47.3971C52.1755 47.3971 52.8327 47.9651 52.8327 48.7225C52.8327 49.4167 52.2412 50.0478 51.4527 50.0478ZM51.4527 46.198C50.7298 46.198 50.0727 45.63 50.0727 44.8726C50.0727 44.1784 50.6641 43.5473 51.4527 43.5473C52.1755 43.5473 52.8327 44.1153 52.8327 44.8726C52.8327 45.5669 52.2412 46.198 51.4527 46.198ZM55.9869 53.8977C55.264 53.8977 54.6069 53.3297 54.6069 52.5723C54.6069 51.815 55.1983 51.247 55.9869 51.247C56.7754 51.247 57.3669 51.815 57.3669 52.5723C57.3669 53.3297 56.7097 53.8977 55.9869 53.8977ZM55.9869 50.0478C55.264 50.0478 54.6069 49.4798 54.6069 48.7225C54.6069 48.0283 55.1983 47.3971 55.9869 47.3971C56.7754 47.3971 57.3669 47.9651 57.3669 48.7225C57.3011 49.4167 56.7097 50.0478 55.9869 50.0478ZM55.9869 46.198C55.264 46.198 54.6069 45.63 54.6069 44.8726C54.6069 44.1784 55.1983 43.5473 55.9869 43.5473C56.7754 43.5473 57.3669 44.1153 57.3669 44.8726C57.3011 45.5669 56.7097 46.198 55.9869 46.198ZM57.3011 40.9597C57.3011 41.2753 57.0383 41.5277 56.7097 41.5277H46.1956C45.8671 41.5277 45.6042 41.2753 45.6042 40.9597V36.2894C45.6042 35.9738 45.8671 35.7214 46.1956 35.7214H56.7097C57.0383 35.7214 57.3011 35.9738 57.3011 36.2894V40.9597Z" fill="#D25C5C"/>
</g>
<defs>
<clipPath id="clip0_1_266">
<rect width="60" height="60" fill="white"/>
</clipPath>
</defs>
</svg>
