<svg width="60" height="60" viewBox="0 0 60 60" fill="none" xmlns="http://www.w3.org/2000/svg">
<path d="M34.6716 -6.10352e-05C41.1755 0.0321889 45.2819 6.21535 46.23 12.5036C53.7118 12.6371 60 19.0962 60 27.0051C60 31.34 57.965 35.0536 54.9927 37.7696C52.402 40.1369 49.0145 41.7533 45.3538 42.8698C45.3538 47.8681 45.3538 52.8665 45.3538 57.8648C39.8811 59.9859 33.636 60.426 28.6837 59.6275C22.2685 58.4725 17.593 57.3324 11.9303 56.8307C11.9303 51.0724 11.9303 45.3142 11.9303 39.5559C5.20049 35.4714 1.06577 28.1748 0.121487 21.2938C-0.772573 12.7395 3.35024 5.94526 9.78133 5.99334C13.2078 6.11161 15.9314 7.88274 18.2936 10.1768C21.8023 3.80087 27.9714 0.0262639 34.6716 -6.10352e-05ZM34.6716 4.51261C26.2811 4.43836 22.4962 9.17288 20.1714 17.2983C16.5925 14.4072 13.7413 10.6121 9.98997 10.5294C4.79126 10.5369 3.50354 16.2148 4.06471 20.6122C4.81889 26.108 8.41867 32.5403 14.2044 35.8659C15.2792 35.6838 16.3237 35.5804 17.3548 35.5133C17.4648 31.7158 17.7264 28.9328 15.6649 25.0544C15.1174 23.5376 15.5637 22.5656 16.5973 21.8009C17.5384 21.4098 18.6292 21.8885 19.0868 22.751C21.6604 27.5929 21.4694 31.7096 21.361 35.4897C22.8477 35.571 24.2837 35.736 25.7006 35.9599C25.9631 33.8912 25.8498 31.8958 25.3876 30.1545C25.0034 28.7896 26.0781 27.1797 27.3488 27.2166C28.1975 27.2406 28.9968 27.9412 29.2265 28.8618C29.8852 31.3435 30.0019 34.0239 29.6438 36.712C31.4123 37.0901 33.1438 37.4749 34.8597 37.8401C34.4854 34.8986 35.7459 32.099 37.0921 30.0605C38.0538 29.0165 38.9015 29.0092 39.9328 29.6183C40.7631 30.4141 40.864 31.8969 40.3051 32.7634C38.8902 34.6543 38.4709 36.4549 39.0532 38.6158C40.4536 38.8123 41.8566 38.9389 43.2677 38.9447C46.96 37.9712 50.2265 36.3163 52.4685 34.2676C54.7827 32.1531 55.9945 29.7939 55.9945 27.0051C55.9173 18.931 50.6938 16.0358 42.4123 17.3453C42.7399 10.1756 39.1559 4.43686 34.6716 4.51261Z" fill="#D25C5C"/>
</svg>
