<svg width="60" height="60" viewBox="0 0 60 60" fill="none" xmlns="http://www.w3.org/2000/svg">
<path d="M59.9793 56.7887L58.797 47.716L57.19 35.4319H2.81049L0.0212039 56.7887C-0.0321167 57.1926 0.0153998 57.6016 0.160648 57.9888C0.305896 58.3761 0.545606 58.7329 0.864112 59.036C1.18262 59.3391 1.57275 59.5816 2.00902 59.7478C2.44528 59.9139 2.91786 59.9998 3.39586 60H56.5988C57.0771 60 57.55 59.9141 57.9867 59.7481C58.4233 59.5821 58.8139 59.3397 59.1329 59.0367C59.4519 58.7336 59.6921 58.3768 59.838 57.9894C59.9838 57.6021 60.032 57.193 59.9793 56.7887ZM7.61425 53.8995L8.42349 47.716H51.577L52.3805 53.8995H7.61425Z" fill="#D25C5C"/>
<path d="M23.7596 13.0248C24.1472 13.8559 24.7043 14.6223 25.4054 15.2887C25.9393 15.8481 26.6085 16.3034 27.3676 16.6236C28.1266 16.9438 28.9578 17.1214 29.8046 17.1444C30.6515 17.1674 31.4943 17.0353 32.2758 16.757C33.0574 16.4786 33.7594 16.0606 34.3342 15.5313C34.4163 15.4582 34.4945 15.3817 34.561 15.3119C35.2703 14.6396 35.8329 13.8651 36.2224 13.0248C36.8258 12.8569 37.3514 12.5313 37.7242 12.0943C38.097 11.6573 38.2979 11.1313 38.2982 10.5914V9.12876C38.2988 8.83174 38.2023 8.54042 38.0193 8.28739C37.8364 8.03436 37.5743 7.8296 37.2623 7.696V5.30582C37.2663 4.54084 37.0593 3.78571 36.6581 3.10103C36.2569 2.41634 35.6725 1.82115 34.9519 1.3632C33.5318 0.455774 31.7943 -0.0195483 30.0184 0.0135386C29.9277 0.00336074 29.8362 -0.00108942 29.7447 0.000224766C28.0475 0.034219 26.4034 0.509923 25.034 1.3632C24.3139 1.82132 23.7302 2.41663 23.3296 3.10134C22.929 3.78605 22.7228 4.54107 22.7275 5.30582V7.69599C22.4141 7.82868 22.1504 8.03304 21.966 8.28614C21.7816 8.53923 21.6839 8.83103 21.6838 9.12875V10.5914C21.6849 11.1311 21.8861 11.6568 22.2588 12.0937C22.6314 12.5306 23.1566 12.8564 23.7596 13.0248Z" fill="#015C9E"/>
<path d="M45.7875 32.5182L43.894 22.5082C43.8207 22.1221 43.641 21.7562 43.3694 21.4404C43.0979 21.1247 42.7424 20.8681 42.3319 20.6916L35.9884 17.9568L31.9421 27.0849L30.9084 21.5483L31.591 20.3009C31.597 20.2894 31.5996 20.2767 31.5984 20.2641C31.5972 20.2515 31.5923 20.2393 31.5841 20.2287C31.576 20.2182 31.5648 20.2095 31.5516 20.2036C31.5385 20.1977 31.5238 20.1946 31.5089 20.1948H28.4911C28.4762 20.1946 28.4615 20.1977 28.4484 20.2036C28.4352 20.2095 28.4241 20.2182 28.4159 20.2287C28.4077 20.2393 28.4028 20.2515 28.4016 20.2641C28.4004 20.2767 28.403 20.2894 28.4091 20.3009L29.0917 21.5483L28.0579 27.0849L24.0116 17.9568L17.6681 20.6916C17.2576 20.8681 16.9021 21.1247 16.6306 21.4404C16.3591 21.7562 16.1794 22.1221 16.1061 22.5082L14.2125 32.5182H45.7875Z" fill="#015C9E"/>
</svg>
