<svg width="176" height="57" viewBox="0 0 176 57" fill="none" xmlns="http://www.w3.org/2000/svg">
<g clip-path="url(#clip0_1_220)">
<path d="M22.2959 0.624268H23.8454C29.2248 0.740104 34.5166 2.88308 38.3172 6.67672C36.9139 8.09571 35.4813 9.45679 34.1072 10.8758C31.973 8.96449 29.4002 7.48757 26.5936 6.96631C22.4421 6.09754 17.969 6.87943 14.4899 9.22512C10.6892 11.6866 8.11643 15.8567 7.56094 20.3164C6.94699 24.7182 8.20413 29.3517 11.0985 32.7689C13.8759 36.0992 18.1151 38.1842 22.5005 38.329C26.5936 38.5607 30.862 37.3154 33.8441 34.4774C36.183 32.4793 37.2647 29.4386 37.6156 26.4847C32.7624 26.4847 27.9092 26.5137 23.056 26.4847V20.5192H43.492C44.5445 26.9191 43.0242 34.1299 38.1126 38.7055C34.8381 41.9489 30.3066 43.8602 25.6873 44.2367C21.2142 44.671 16.5949 43.8312 12.6188 41.6883C7.8533 39.1688 4.05262 34.9118 2.18152 29.9019C0.427354 25.2974 0.398118 20.0848 2.03534 15.4513C3.52637 11.2233 6.3915 7.48757 10.0752 4.88125C13.6128 2.30389 17.9105 0.884899 22.2959 0.624268Z" fill="#202C51"/>
<path d="M139.531 2.12939H145.788V43.483C143.712 43.483 141.607 43.5119 139.531 43.454C139.56 29.6984 139.531 15.9139 139.531 2.12939Z" fill="#202C51"/>
<path d="M57.4107 16.4642C61.2699 15.7402 65.4506 16.551 68.6374 18.8388C71.5317 20.8659 73.549 24.0514 74.163 27.5265C74.9523 31.5519 73.9583 35.9536 71.3271 39.1391C68.4912 42.7011 63.8426 44.6124 59.3111 44.3228C55.1595 44.0911 51.125 42.0351 48.6691 38.6758C45.8917 34.969 45.2193 29.8722 46.7395 25.5284C48.2598 20.8659 52.5575 17.304 57.4107 16.4642ZM58.2878 21.9664C56.709 22.3718 55.2472 23.2696 54.1947 24.5438C51.3588 27.903 51.5343 33.3763 54.6625 36.5039C56.4459 38.2993 59.1356 39.1391 61.6207 38.6468C63.9303 38.2414 65.9476 36.7066 67.0586 34.6794C68.9882 31.2333 68.4327 26.484 65.4799 23.7908C63.5795 22.0533 60.8021 21.3293 58.2878 21.9664Z" fill="#202C51"/>
<path d="M88.3974 16.464C92.812 15.6242 97.636 16.8404 100.94 19.9101C106.319 24.6884 106.904 33.6367 102.314 39.1389C99.5363 42.614 95.034 44.5253 90.5901 44.3226C86.3509 44.2068 82.1701 42.1217 79.6558 38.6756C76.8199 34.882 76.206 29.6693 77.814 25.2386C79.4219 20.721 83.6319 17.2748 88.3974 16.464ZM89.2745 21.9662C87.6957 22.3716 86.2339 23.2694 85.1814 24.5146C82.3748 27.8159 82.4917 33.2023 85.503 36.3589C87.2864 38.2412 90.0639 39.1679 92.6366 38.6466C94.917 38.2123 96.9636 36.7064 98.0745 34.6792C99.9749 31.2042 99.4194 26.4549 96.4373 23.7617C94.537 22.0241 91.7595 21.3291 89.2745 21.9662Z" fill="#202C51"/>
<path d="M114.681 18.1438C118.044 16.0587 122.517 15.4795 126.142 17.275C127.282 17.7673 128.218 18.6071 129.124 19.4469C129.153 18.665 129.124 17.8542 129.153 17.0433C131.112 17.0723 133.071 17.0433 135.059 17.0723V42.6142C135.03 46.4658 134.036 50.549 131.229 53.358C128.159 56.4567 123.452 57.4123 119.213 56.7752C114.681 56.1092 110.735 52.8368 108.98 48.6956C110.735 47.8558 112.576 47.1898 114.389 46.4079C115.412 48.7825 117.488 50.8096 120.09 51.273C122.692 51.7363 125.703 51.0992 127.399 48.9563C129.212 46.7554 129.212 43.7436 129.124 41.0504C127.779 42.3536 126.23 43.512 124.358 43.9463C120.295 45.0757 115.822 43.6857 112.693 40.9636C109.536 38.2414 107.665 34.0423 107.84 29.8722C107.928 25.1519 110.618 20.6053 114.681 18.1438ZM120.733 21.8505C118.95 22.1401 117.283 23.1247 116.143 24.4858C113.395 27.7292 113.395 32.9129 116.172 36.0984C117.751 37.9808 120.295 39.0233 122.751 38.7627C125.06 38.531 127.194 37.083 128.335 35.0849C130.264 31.6966 129.943 27.0921 127.341 24.1383C125.733 22.3139 123.16 21.4162 120.733 21.8505Z" fill="#202C51"/>
<path d="M153.3 19.6208C156.808 16.3774 162.217 15.277 166.719 16.9855C170.988 18.5783 173.707 22.6036 175.081 26.7448C168.737 29.3511 162.422 31.9284 156.077 34.5348C156.954 36.1854 158.299 37.6913 160.112 38.2994C162.656 39.1972 165.696 38.8786 167.83 37.199C168.678 36.5619 169.351 35.7221 169.994 34.9112C171.602 35.9827 173.21 37.0252 174.818 38.0967C172.537 41.4849 168.707 43.8596 164.585 44.2361C160.024 44.7863 155.171 43.0487 152.218 39.5157C147.365 33.9556 147.833 24.6307 153.3 19.6208ZM156.428 24.9783C155.434 26.3972 155.025 28.1348 155.054 29.8434C159.293 28.1058 163.533 26.3683 167.772 24.6018C167.07 22.9801 165.374 21.9955 163.65 21.7348C160.872 21.2425 157.978 22.7194 156.428 24.9783Z" fill="#202C51"/>
</g>
<defs>
<clipPath id="clip0_1_220">
<rect width="174.247" height="56.3354" fill="white" transform="translate(0.835938 0.618408)"/>
</clipPath>
</defs>
</svg>
