<svg width="60" height="60" viewBox="0 0 60 60" fill="none" xmlns="http://www.w3.org/2000/svg">
<path d="M0 49.6552V58.9655C0 59.5345 0.55102 60 1.22449 60H39.5143C38.1563 58.4276 37.2612 56.5759 36.9061 54.6C36.7959 54.0414 36.7347 53.4414 36.7347 52.7586C36.7347 49.6034 38.1918 46.531 40.7388 44.2552V34.2C36.3673 30.9207 30.6245 28.9655 24.4898 28.9655C10.9837 28.9655 0 38.2448 0 49.6552Z" fill="#015C9E"/>
<path d="M39.1842 12.4138C39.1842 5.56862 32.5928 0 24.4903 0C16.3879 0 9.79645 5.56862 9.79645 12.4138C9.79645 19.259 16.3879 24.8276 24.4903 24.8276C32.5928 24.8276 39.1842 19.259 39.1842 12.4138Z" fill="#015C9E"/>
<path d="M59.996 8.89656C59.996 5.74138 57.6082 3.06207 54.2776 2.06897V10.2724H48.5715V2.06897C45.2409 3.06207 42.8531 5.74138 42.8531 8.89656V9.03207C42.9144 11.5552 44.4817 13.7586 46.8572 15.0207V46.6345C46.3429 46.9035 45.8654 47.2241 45.4368 47.5862C43.8462 48.8897 42.8531 50.731 42.8531 52.7586C42.8531 53.1103 42.8776 53.4517 42.9511 53.7931C43.5389 57.3 47.1144 60 51.4246 60C56.1499 60 59.996 56.7517 59.996 52.7586C59.996 50.6069 58.8817 48.6724 57.1074 47.3483C56.7633 47.0793 56.3838 46.8424 55.9931 46.6355V15.0207C58.4042 13.7379 59.996 11.4724 59.996 8.89656ZM55.4287 54.6931L51.4246 56.6172L47.4205 54.6931V50.8241L50.2001 49.4897L51.4246 48.9L55.4287 50.8241V54.6931Z" fill="#D25C5C"/>
</svg>
