<svg width="60" height="49" viewBox="0 0 60 49" fill="none" xmlns="http://www.w3.org/2000/svg">
<path d="M58.9179 22.3189L50.5869 15.7027V4.74049C50.5869 3.89725 49.8926 3.18374 49.0721 3.18374H46.4214C45.6009 3.18374 44.9066 3.89725 44.9066 4.74049V11.227L31.7158 0.783735C30.7059 0.00535654 29.2543 0.00535654 28.2445 0.783735L1.10543 22.3189C0.474292 22.7729 0.0956076 23.4864 0.0324935 24.2648C-0.0937347 25.0432 0.158722 25.8216 0.60052 26.4054C1.54723 27.7027 3.31443 27.8973 4.57671 26.9243L30.0117 6.7513L55.4467 26.9243C56.6458 27.8973 58.4762 27.6378 59.4229 26.4054C60.3696 25.1081 60.1171 23.2918 58.9179 22.3189Z" fill="#D25C5C"/>
<path d="M34.8122 32.7621L31.5303 39.8972L30.836 35.0972H31.2778C31.5934 35.0972 31.7827 34.8377 31.7827 34.5783V32.9567C31.7827 32.6323 31.5303 32.4377 31.2778 32.4377H28.7533C28.4377 32.4377 28.2483 32.6972 28.2483 32.9567V34.5783C28.2483 34.8377 28.5008 35.0972 28.7533 35.0972H29.1951L28.5008 39.8972L25.2189 32.7621C21.9369 33.5404 19.3493 36.3945 18.9706 39.9621L18.655 44.5026C18.5288 46.5134 20.0435 48.1999 22 48.1999H38.1573C40.1138 48.1999 41.6285 46.5134 41.5023 44.5026L41.1867 39.9621C40.6818 36.3945 38.0941 33.6053 34.8122 32.7621Z" fill="#015C9E"/>
<path d="M30.0173 31.0107C34.0607 31.0107 37.3385 27.6419 37.3385 23.4864C37.3385 19.3308 34.0607 15.962 30.0173 15.962C25.9739 15.962 22.696 19.3308 22.696 23.4864C22.696 27.6419 25.9739 31.0107 30.0173 31.0107Z" fill="#015C9E"/>
</svg>
