<svg width="60" height="60" viewBox="0 0 60 60" fill="none" xmlns="http://www.w3.org/2000/svg">
<g clip-path="url(#clip0_1_451)">
<path d="M52.5 9.32812H7.5L0 16.8281V18.7031V26.2031C0 30.345 3.36188 33.7031 7.5 33.7031V52.4531C3.36176 52.4531 0 55.8113 0 59.9531H60C60 55.8113 56.6455 52.4531 52.5 52.4531V33.7031C56.6455 33.7031 60 30.345 60 26.2031V18.7031V16.8281L52.5 9.32812ZM45 26.2031C45 28.2722 43.3154 29.9531 41.25 29.9531C39.1846 29.9531 37.5 28.2722 37.5 26.2031V18.7031H45V26.2031ZM22.5 26.2031C22.5 28.2722 20.8191 29.9531 18.75 29.9531C16.6846 29.9531 15 28.2722 15 26.2031V18.7031H22.5V26.2031ZM26.25 18.7031H33.75V26.2031C33.75 28.2722 32.0691 29.9531 30 29.9531C27.9346 29.9531 26.25 28.2722 26.25 26.2031V18.7031ZM3.75 26.2031V18.7031H11.25V26.2031C11.25 28.2722 9.56906 29.9531 7.5 29.9531C5.43457 29.9531 3.75 28.2722 3.75 26.2031ZM11.25 52.4531V32.6631C11.9605 32.2493 12.5904 31.7329 13.125 31.1176C14.502 32.6886 16.5015 33.7031 18.75 33.7031C21.0059 33.7031 23.0017 32.6888 24.375 31.1176C25.752 32.6886 27.7515 33.7031 30 33.7031C31.377 33.7031 32.6441 33.3076 33.75 32.6631V52.4531H11.25ZM48.75 52.4531H37.5V32.6631C38.606 33.3076 39.8804 33.7031 41.25 33.7031C43.5059 33.7031 45.5054 32.6888 46.875 31.1176C47.417 31.7329 48.0396 32.2492 48.75 32.6631V52.4531ZM56.25 26.2031C56.25 28.2722 54.5654 29.9531 52.5 29.9531C50.4346 29.9531 48.75 28.2722 48.75 26.2031V18.7031H56.25V26.2031ZM43.125 41.2031C43.125 42.2395 42.29 43.0781 41.25 43.0781C40.2172 43.0781 39.375 42.2395 39.375 41.2031C39.375 40.1667 40.2173 39.3281 41.25 39.3281C42.29 39.3281 43.125 40.1667 43.125 41.2031Z" fill="#015C9E"/>
<path d="M52.5 7.45313H7.5V-0.046875H52.5V7.45313Z" fill="#D25C5C"/>
</g>
<defs>
<clipPath id="clip0_1_451">
<rect width="60" height="60" fill="white"/>
</clipPath>
</defs>
</svg>
