<svg width="222" height="61" viewBox="0 0 222 61" fill="none" xmlns="http://www.w3.org/2000/svg">
<path fill-rule="evenodd" clip-rule="evenodd" d="M135.614 13.076H106.421V22.5964H116.178V42.9648H125.695V22.5964H135.614V13.076ZM164.14 42.8867L154.939 13.076H143.354L134.155 42.8867H143.674L149.147 21.6906L154.622 42.8867H164.14ZM193.284 13.076H164.092V22.5964H173.849V42.9648H183.365V22.5964H193.284V13.076ZM221.489 42.8867L212.287 13.076H200.705L191.502 42.8867H201.025L206.498 21.6906L211.969 42.8867H221.489ZM35.4421 45.0422C37.5157 36.2337 39.054 27.6356 39.054 27.6356C39.054 27.6356 39.8275 24.7998 38.2804 22.866C36.7334 20.9322 31.9638 21.5772 31.9638 21.5772C31.9638 21.5772 24.5549 21.6654 17.0037 22.5749C10.2789 23.3863 3.41672 24.7204 0.887044 25.2331C0.358182 27.0404 0.0871693 28.9133 0.0820312 30.7964C0.0820312 44.0684 13.3452 55.3285 31.7585 59.351C32.7247 55.8387 34.1773 50.4077 35.4421 45.0422Z" fill="#202C51"/>
<path fill-rule="evenodd" clip-rule="evenodd" d="M49.1306 39.498C49.0424 28.8237 49.341 18.8688 49.341 18.8688C49.341 18.8688 48.9983 17.3696 49.9545 16.6364C50.9334 15.8868 53.2086 15.9045 53.2086 15.9045C53.2086 15.9045 62.0347 16.1526 71.9254 17.4213C79.1466 18.3497 86.9548 19.8388 90.481 20.5431C83.9981 8.9428 66.8295 0.65332 46.6664 0.65332C26.4239 0.65332 9.20623 9.00958 2.78125 20.6779C5.8728 20.0555 14.2769 18.4165 22.0159 17.4225C31.9066 16.1539 40.7302 15.9057 40.7302 15.9057C40.7302 15.9057 43.008 15.8881 43.9856 16.6377C44.9417 17.3709 44.5991 18.87 44.5991 18.87C44.5991 18.87 44.8989 28.825 44.8095 39.4993C44.7389 47.6804 44.487 56.2609 44.3333 60.8983C45.1055 60.9235 45.8816 60.9373 46.6652 60.9373C47.6528 60.9373 48.6317 60.9109 49.6043 60.8705C49.4518 56.2244 49.2011 47.6628 49.1306 39.498Z" fill="#202C51"/>
<path fill-rule="evenodd" clip-rule="evenodd" d="M76.9349 22.5739C69.3836 21.6644 61.9735 21.5762 61.9735 21.5762C61.9735 21.5762 57.2052 20.9324 55.6556 22.865C54.1098 24.7988 54.8846 27.6346 54.8846 27.6346C54.8846 27.6346 56.4216 36.2327 58.4952 45.0412C59.7436 50.3437 61.1773 55.708 62.1436 59.2241C80.2595 55.0957 93.2468 43.9263 93.2468 30.7954C93.2468 28.8478 92.9507 26.948 92.4065 25.1036C89.4863 24.5203 83.1507 23.3235 76.9349 22.5739Z" fill="#202C51"/>
</svg>
