<svg width="191" height="57" viewBox="0 0 191 57" fill="none" xmlns="http://www.w3.org/2000/svg">
<g clip-path="url(#clip0_1_231)">
<path d="M186.478 34.2567C186.37 34.7992 186.181 35.2602 185.924 35.6669C185.667 36.0733 185.328 36.3992 184.896 36.6564C184.476 36.9008 183.949 37.0359 183.326 37.0359C182.717 37.0359 182.189 36.9142 181.77 36.6564C181.352 36.411 180.995 36.0725 180.728 35.6669C180.471 35.2606 180.281 34.7992 180.16 34.2567C180.04 33.7182 179.981 33.1681 179.984 32.6165C179.984 32.0472 180.038 31.4775 180.146 30.9495C180.254 30.407 180.444 29.9325 180.701 29.5258C180.958 29.105 181.297 28.7801 181.729 28.5093C182.149 28.2514 182.676 28.116 183.299 28.116C183.908 28.116 184.422 28.2514 184.841 28.5093C185.262 28.7697 185.618 29.1218 185.883 29.5392C186.154 29.9593 186.344 30.4471 186.465 30.9763C186.586 31.5184 186.641 32.0606 186.641 32.6165C186.641 33.1724 186.586 33.7145 186.478 34.2567ZM190.078 29.8782C189.821 28.9699 189.442 28.1837 188.928 27.4923C188.4 26.8147 187.75 26.2584 186.966 25.8521C186.181 25.4454 185.234 25.2285 184.138 25.2285C183.272 25.2285 182.487 25.4049 181.77 25.7438C181.052 26.0828 180.457 26.6384 179.997 27.384H179.943V25.608H176.316V44.4109H180.132V37.8084H180.186C180.636 38.4717 181.252 39.0048 181.973 39.3541C182.703 39.7064 183.488 39.8828 184.354 39.8828C185.369 39.8828 186.262 39.6797 187.033 39.2863C187.778 38.9043 188.429 38.3627 188.941 37.7001C189.456 37.0359 189.834 36.2764 190.078 35.4091C190.335 34.5413 190.457 33.6472 190.457 32.7114C190.457 31.722 190.335 30.7731 190.078 29.8644V29.8782ZM171.256 34.2567C171.148 34.7992 170.958 35.2602 170.701 35.6669C170.444 36.0736 170.106 36.3992 169.673 36.6564C169.253 36.9008 168.726 37.0359 168.103 37.0359C167.494 37.0359 166.98 36.9142 166.547 36.6564C166.129 36.4108 165.772 36.0723 165.505 35.6669C165.248 35.2606 165.059 34.7992 164.937 34.2567C164.818 33.7183 164.759 33.1681 164.761 32.6165C164.761 32.0472 164.815 31.4775 164.923 30.9495C165.032 30.407 165.221 29.9325 165.478 29.5258C165.735 29.105 166.073 28.7801 166.506 28.5093C166.926 28.2514 167.454 28.116 168.076 28.116C168.685 28.116 169.199 28.2514 169.619 28.5093C170.039 28.7696 170.395 29.1217 170.66 29.5392C170.931 29.9593 171.12 30.4471 171.243 30.9763C171.364 31.5184 171.418 32.0606 171.418 32.6165C171.418 33.1724 171.364 33.7145 171.256 34.2567ZM173.705 27.4923C173.191 26.8147 172.528 26.2584 171.743 25.8521C170.958 25.4454 170.011 25.2285 168.915 25.2285C168.048 25.2285 167.264 25.4049 166.547 25.7438C165.83 26.0828 165.234 26.6384 164.774 27.384H164.72V25.608H161.093V44.4109H164.909V37.8084H164.964C165.413 38.4717 166.03 39.0048 166.75 39.3541C167.48 39.7064 168.265 39.8828 169.131 39.8828C170.159 39.8828 171.039 39.6797 171.811 39.2863C172.555 38.9041 173.206 38.3625 173.718 37.7001C174.233 37.0359 174.612 36.2764 174.869 35.4091C175.119 34.5316 175.246 33.6238 175.248 32.7114C175.248 31.722 175.126 30.7731 174.869 29.8644C174.612 28.9565 174.233 28.1699 173.705 27.4789V27.4923ZM148.59 32.1015L151.093 25.0383H151.148L153.57 32.1015H148.59ZM148.996 20.2937L141.73 39.5301H145.979L147.481 35.2465H154.666L156.114 39.5301H160.498L153.313 20.2937H148.983H148.996ZM141.419 33.4299C141.161 32.996 140.837 32.6165 140.417 32.3184C140.011 32.0204 139.537 31.7893 139.01 31.5999C138.475 31.4239 137.933 31.2702 137.386 31.1393C136.845 31.0168 136.317 30.8948 135.803 30.7865C135.288 30.6782 134.815 30.5558 134.422 30.4204C134.017 30.2849 133.692 30.1089 133.448 29.8916C133.191 29.6747 133.069 29.4038 133.069 29.0514C133.069 28.7668 133.137 28.536 133.286 28.3597C133.435 28.1837 133.611 28.0616 133.813 27.9667C134.017 27.8719 134.246 27.8175 134.504 27.7907C134.737 27.7648 134.972 27.7513 135.207 27.7502C135.884 27.7502 136.479 27.8856 136.98 28.1431C137.481 28.4006 137.765 28.9022 137.806 29.6341H141.432C141.364 28.7664 141.135 28.0616 140.769 27.4919C140.404 26.9222 139.944 26.4754 139.389 26.1364C138.834 25.7974 138.198 25.5537 137.494 25.4045C136.791 25.2553 136.06 25.1875 135.302 25.1875C134.545 25.1875 133.814 25.2556 133.097 25.3907C132.38 25.5261 131.731 25.7568 131.162 26.0958C130.581 26.4348 130.12 26.8825 129.782 27.4514C129.43 28.0207 129.254 28.7668 129.254 29.6609C129.254 30.2711 129.376 30.7861 129.633 31.2062C129.877 31.6271 130.215 31.9791 130.621 32.2637C131.04 32.535 131.501 32.7657 132.028 32.9417C132.556 33.1177 133.097 33.2673 133.652 33.3889C135.019 33.6736 136.075 33.9583 136.846 34.2429C137.603 34.5276 137.982 34.9614 137.982 35.5307C137.982 35.8697 137.901 36.1544 137.739 36.3847C137.58 36.6098 137.372 36.7953 137.13 36.9268C136.886 37.0623 136.615 37.1576 136.318 37.2249C136.038 37.2886 135.752 37.3204 135.465 37.3198C135.087 37.3198 134.721 37.2796 134.383 37.1843C134.031 37.0895 133.72 36.9532 133.449 36.7639C133.179 36.5741 132.962 36.33 132.786 36.0319C132.61 35.7339 132.529 35.3811 132.529 34.9744H128.903C128.943 35.9095 129.147 36.6824 129.539 37.306C129.918 37.93 130.418 38.4178 131.014 38.7974C131.609 39.1769 132.299 39.4478 133.071 39.6104C133.842 39.7734 134.626 39.8549 135.438 39.8549C136.223 39.8549 137.008 39.7734 137.766 39.6238C138.524 39.475 139.2 39.2037 139.796 38.8242C140.391 38.4446 140.865 37.943 141.23 37.3328C141.595 36.7095 141.785 35.9505 141.785 35.0284C141.785 34.378 141.663 33.8358 141.406 33.4016L141.419 33.4299ZM125.627 21.4327H121.811V25.608H119.497V28.1699H121.811V36.3855C121.811 37.0906 121.933 37.6465 122.163 38.08C122.393 38.5143 122.718 38.8391 123.124 39.0836C123.53 39.3139 123.99 39.4765 124.518 39.558C125.073 39.6408 125.634 39.6815 126.196 39.6797C126.575 39.6797 126.954 39.6663 127.359 39.6529C127.718 39.6407 128.075 39.6044 128.428 39.5442V36.5752C128.242 36.6175 128.052 36.6446 127.861 36.6564C127.653 36.6726 127.446 36.6816 127.238 36.6835C126.588 36.6835 126.169 36.5752 125.953 36.3579C125.736 36.1414 125.628 35.7071 125.628 35.0705V28.1699H128.428V25.608H125.628V21.4327H125.627ZM114.68 34.1484C114.68 34.365 114.653 34.65 114.612 35.0161C114.567 35.3906 114.442 35.7511 114.247 36.0737C114.044 36.4264 113.746 36.7245 113.327 36.9823C112.921 37.2394 112.326 37.3619 111.582 37.3619C111.284 37.3619 110.986 37.3343 110.689 37.2804C110.404 37.2257 110.147 37.1308 109.931 36.9957C109.714 36.8599 109.552 36.6839 109.416 36.4398C109.295 36.2095 109.227 35.9248 109.227 35.5721C109.227 35.2059 109.295 34.9213 109.416 34.6775C109.538 34.4465 109.714 34.2567 109.918 34.0945C110.12 33.9452 110.364 33.8236 110.648 33.7287C110.932 33.6338 111.203 33.5657 111.5 33.5114C111.806 33.4587 112.113 33.4136 112.42 33.3759C112.732 33.3354 113.016 33.2944 113.3 33.2405C113.584 33.1866 113.841 33.1184 114.085 33.0373C114.329 32.9562 114.531 32.8476 114.694 32.6984V34.122L114.68 34.1484ZM118.496 36.4394V29.1865C118.496 28.3463 118.306 27.6683 117.928 27.1533C117.549 26.638 117.061 26.245 116.48 25.9604C115.885 25.6757 115.235 25.486 114.518 25.3777C113.814 25.2813 113.104 25.2314 112.394 25.2285C111.622 25.2285 110.851 25.31 110.093 25.4592C109.336 25.6084 108.645 25.8655 108.036 26.232C107.437 26.5895 106.924 27.0757 106.534 27.6557C106.142 28.2522 105.912 28.9975 105.858 29.8924H109.674C109.741 29.1337 109.998 28.6049 110.431 28.2793C110.865 27.9537 111.446 27.7915 112.204 27.7915C112.543 27.7915 112.867 27.8183 113.165 27.8592C113.442 27.8957 113.709 27.988 113.95 28.1305C114.18 28.2659 114.356 28.4557 114.491 28.6998C114.627 28.9439 114.694 29.2687 114.694 29.6892C114.708 30.0821 114.599 30.3809 114.342 30.5975C114.085 30.8007 113.747 30.9636 113.314 31.0719C112.881 31.1802 112.394 31.2617 111.839 31.316C111.284 31.3704 110.716 31.4381 110.148 31.533C109.58 31.6278 109.011 31.7495 108.443 31.8987C107.874 32.0479 107.373 32.2783 106.94 32.5905C106.494 32.9019 106.142 33.3086 105.858 33.8102C105.574 34.3256 105.438 34.9764 105.438 35.7626C105.438 36.4811 105.56 37.1048 105.804 37.6197C106.032 38.1218 106.375 38.5631 106.805 38.9079C107.252 39.2561 107.762 39.5139 108.307 39.667C108.875 39.8296 109.498 39.9107 110.161 39.9107C111.027 39.9107 111.866 39.7891 112.691 39.5312C113.507 39.2816 114.248 38.8294 114.843 38.2166C114.856 38.4469 114.897 38.6769 114.937 38.9079C114.978 39.1245 115.045 39.3552 115.113 39.5721H118.984C118.807 39.2875 118.672 38.8532 118.605 38.2839C118.533 37.6857 118.497 37.0837 118.496 36.4811V36.4394H118.496ZM102.773 26.8143C102.394 26.3265 101.88 25.9332 101.23 25.662C100.581 25.3773 99.7421 25.2415 98.7133 25.2415C97.9961 25.2415 97.2655 25.4313 96.5079 25.7974C95.7502 26.1635 95.1411 26.76 94.6542 27.5597H94.5729V20.3071H90.757V39.5438H94.5729V32.2369C94.5729 30.8133 94.8031 29.7967 95.2767 29.1731C95.7369 28.5494 96.4945 28.2514 97.5363 28.2514C98.4429 28.2514 99.0925 28.536 99.4442 29.105C99.7963 29.6743 99.9857 30.5286 99.9857 31.6806V39.5438H103.802V30.9763C103.802 30.1085 103.72 29.3227 103.571 28.6175C103.422 27.9124 103.152 27.3025 102.773 26.8143ZM82.5972 33.5657H82.543L79.2687 20.3075H75.3173L71.9884 33.4031H71.9342L68.8894 20.3075H64.668L69.7555 39.5442H74.0315L77.2248 26.4482H77.2791L80.5266 39.5442H84.7213L87.0214 31.0034L89.8901 20.3075H85.7493L82.5972 33.5657Z" fill="#202C51"/>
<path d="M28.8782 51.1216C24.2096 51.1216 19.8526 49.7118 16.2129 47.3125L7.363 50.1452L10.2317 41.5777C7.47146 37.7815 5.84805 33.1046 5.84805 28.0616C5.84805 15.3455 16.1724 5.00194 28.8648 5.00194C41.5573 5.00194 51.8816 15.3455 51.8816 28.0616C51.8816 40.7773 41.5573 51.1213 28.8648 51.1213H28.8782V51.1216ZM28.8782 0.636475C13.7631 0.636475 1.50407 12.9195 1.50407 28.062C1.50407 33.2405 2.93844 38.0937 5.42797 42.2285L0.489014 56.9375L15.6446 52.0709C19.6955 54.315 24.2493 55.4905 28.8782 55.4871C43.9929 55.4871 56.2523 43.2049 56.2523 28.062C56.2519 12.9195 43.9929 0.636475 28.8782 0.636475Z" fill="#FEFEFE"/>
<path d="M28.8796 5.00134C16.1872 5.00134 5.86285 15.3449 5.86285 28.061C5.86285 33.104 7.48664 37.781 10.2469 41.5771L7.37818 50.1447L16.2277 47.3119C19.8674 49.7249 24.211 51.121 28.893 51.121C41.5854 51.121 51.9097 40.7771 51.9097 28.0614C51.9097 15.3453 41.5854 5.00173 28.893 5.00173H28.8796V5.00134Z" fill="#202C51"/>
<path d="M22.4533 16.7149C22.0069 15.644 21.6685 15.6034 20.9922 15.5759C20.7354 15.5593 20.4781 15.5503 20.2208 15.5491C19.3409 15.5491 18.4209 15.8066 17.8661 16.3759C17.1897 17.0672 15.5117 18.6803 15.5117 21.9882C15.5117 25.2962 17.9203 28.4955 18.2449 28.9431C18.5832 29.39 22.9406 36.2768 29.7061 39.0835C34.9968 41.2797 36.5667 41.0761 37.7708 40.8186C39.5298 40.4391 41.7356 39.1371 42.2905 37.565C42.8453 35.9921 42.8453 34.65 42.6827 34.3653C42.5204 34.0807 42.0735 33.9184 41.3972 33.5791C40.7209 33.2401 37.4325 31.6133 36.81 31.3963C36.2009 31.166 35.6193 31.2475 35.1595 31.8983C34.5099 32.8066 33.874 33.7287 33.3596 34.2842C32.9537 34.7181 32.2903 34.7724 31.7358 34.5417C30.9915 34.2303 28.908 33.4976 26.3367 31.2066C24.3475 29.4309 22.9944 27.2214 22.6022 26.5572C22.2096 25.8796 22.5617 25.4859 22.8726 25.1202C23.211 24.6997 23.5356 24.4017 23.8739 24.0083C24.2123 23.6154 24.4017 23.4119 24.6182 22.9508C24.8485 22.5036 24.6858 22.0426 24.5235 21.7036C24.3612 21.3646 23.0082 18.0566 22.4533 16.7149Z" fill="#FEFEFE"/>
</g>
<defs>
<clipPath id="clip0_1_231">
<rect width="189.968" height="56.3354" fill="white" transform="translate(0.488281 0.618408)"/>
</clipPath>
</defs>
</svg>
